<svg xmlns="http://www.w3.org/2000/svg" data-name="Layer 1" viewBox="0 0 100 125" x="0px" y="0px"><path d="m84.111,84.642h-3.399v-42.149c0-.563-.481-1.019-1.074-1.019h-10.669v-23.689c0-.563-.481-1.019-1.074-1.019h-3.399v-2.428c0-.563-.481-1.019-1.074-1.019h-13.421c-.593,0-1.074.456-1.074,1.019v2.428h-3.399c-.593,0-1.074.456-1.074,1.019v16.302l-23.668,9.803s-.001,0-.002,0l-.011.005c-.038.016-.063.046-.099.065-.085.047-.171.092-.239.159-.049.047-.077.107-.115.161-.038.055-.084.104-.111.165-.037.085-.046.178-.057.27-.005.039-.024.073-.024.113v.011s0,.001,0,.002v39.799h-4.238c-.593,0-1.074.456-1.074,1.019s.481,1.019,1.074,1.019h68.222c.593,0,1.074-.456,1.074-1.019s-.481-1.019-1.074-1.019Zm-13.377,0h-5.68v-9.496h5.68v9.496Zm7.829,0h-5.68v-10.515c0-.563-.481-1.019-1.074-1.019h-7.829c-.593,0-1.074.456-1.074,1.019v10.515h-5.68v-40.275c.103-.156.179-.331.179-.529,0-.116-.032-.222-.069-.326h10.559s0,0,0,0,0,0,0,0h10.668v41.13ZM51.074,15.358h11.272v1.409h-11.272v-1.409Zm-28.798,30.139l22.176-9.185v48.331h-6.099v-10.515c0-.563-.481-1.019-1.074-1.019h-7.829c-.593,0-1.074.456-1.074,1.019v10.515h-6.099v-39.146Zm8.248,39.146v-9.496h5.68v9.496h-5.68Zm16.077-49.888v-.011s0-.001,0-.002v-15.937h20.219v22.67h-10.669c-.593,0-1.074.456-1.074,1.019v.326h-4.197c-.593,0-1.074.456-1.074,1.019s.481,1.019,1.074,1.019h4.197v2.204h-3.987c-.593,0-1.074.456-1.074,1.019s.481,1.019,1.074,1.019h3.987v3.132h-4.266c-.593,0-1.074.456-1.074,1.019s.481,1.019,1.074,1.019h4.266v1.873h-4.372c-.593,0-1.074.456-1.074,1.019s.481,1.019,1.074,1.019h4.372v3.696h-4.441c-.593,0-1.074.456-1.074,1.019s.481,1.019,1.074,1.019h4.441v1.74h-4.441c-.593,0-1.074.456-1.074,1.019s.481,1.019,1.074,1.019h4.441v16.95h-8.476v-49.888Zm14.583,13.47c-.339,0-.614.261-.614.582v2.121c0,.322.275.582.614.582h12.861c.339,0,.614-.261.614-.582v-2.121c0-.322-.275-.582-.614-.582h-12.861Zm12.247,2.121h-11.633v-.957h11.633v.957Zm.474,3.181h-12.861c-.339,0-.614.261-.614.582v2.121c0,.321.275.582.614.582h12.861c.339,0,.614-.261.614-.582v-2.121c0-.322-.275-.582-.614-.582Zm-.614,2.121h-11.634v-.957h11.634v.957Zm.614,3.314h-12.861c-.339,0-.614.261-.614.582v2.121c0,.322.275.582.614.582h12.861c.339,0,.614-.261.614-.582v-2.121c0-.322-.275-.582-.614-.582Zm-.614,2.121h-11.634v-.957h11.634v.957Zm.474,3.447h-12.861c-.339,0-.614.261-.614.582v2.121c0,.321.275.582.614.582h12.861c.339,0,.614-.261.614-.582v-2.121c0-.322-.275-.582-.614-.582Zm-.614,2.121h-11.634v-.957h11.634v.957Zm-23.177-43.032c0-.563.481-1.019,1.074-1.019h11.603c.593,0,1.074.456,1.074,1.019s-.481,1.019-1.074,1.019h-11.603c-.593,0-1.074-.456-1.074-1.019Zm-.14,4.839c0-.563.481-1.019,1.074-1.019h11.603c.593,0,1.074.456,1.074,1.019s-.481,1.019-1.074,1.019h-11.603c-.593,0-1.074-.456-1.074-1.019Zm-.279,6.034c0-.563.481-1.019,1.074-1.019h11.603c.593,0,1.074.456,1.074,1.019s-.481,1.019-1.074,1.019h-11.603c-.593,0-1.074-.456-1.074-1.019Zm14.032,4.11c0,.563-.481,1.019-1.074,1.019h-11.603c-.593,0-1.074-.456-1.074-1.019s.481-1.019,1.074-1.019h11.603c.593,0,1.074.456,1.074,1.019Zm-31.826,29.157c.593,0,1.074-.456,1.074-1.019v-6.363c0-.563-.481-1.019-1.074-1.019h-4.194c-.593,0-1.074.456-1.074,1.019v6.363c0,.563.481,1.019,1.074,1.019h4.194Zm-3.119-6.363h2.045v4.326h-2.045v-4.326Zm7.174,6.231h4.194c.593,0,1.074-.456,1.074-1.019v-6.363c0-.563-.481-1.019-1.074-1.019h-4.194c-.593,0-1.074.456-1.074,1.019v6.363c0,.563.481,1.019,1.074,1.019Zm1.074-6.363h2.045v4.326h-2.045v-4.326Zm-9.043-3.182h4.194c.593,0,1.074-.456,1.074-1.019v-6.363c0-.563-.481-1.019-1.074-1.019h-4.194c-.593,0-1.074.456-1.074,1.019v6.363c0,.563.481,1.019,1.074,1.019Zm1.074-6.363h2.045v4.326h-2.045v-4.326Zm7.174,6.231h4.194c.593,0,1.074-.456,1.074-1.019v-6.363c0-.563-.481-1.019-1.074-1.019h-4.194c-.593,0-1.074.456-1.074,1.019v6.363c0,.563.481,1.019,1.074,1.019Zm1.074-6.363h2.045v4.326h-2.045v-4.326Z"/><text x="0" y="115" fill="#000000" font-size="5px" font-weight="bold" font-family="'Helvetica Neue', Helvetica, Arial-Unicode, Arial, Sans-serif">Created by Nanik haq</text><text x="0" y="120" fill="#000000" font-size="5px" font-weight="bold" font-family="'Helvetica Neue', Helvetica, Arial-Unicode, Arial, Sans-serif">from the Noun Project</text></svg>