<svg xmlns="http://www.w3.org/2000/svg" data-name="Layer 1" viewBox="0 0 100 125" x="0px" y="0px"><path d="m27.212,66.084c0,.535-.487.968-1.088.968h-3.729c-.601,0-1.088-.433-1.088-.968s.487-.968,1.088-.968h3.729c.601,0,1.088.433,1.088.968Zm6.15-.968h-3.729c-.601,0-1.088.433-1.088.968s.487.968,1.088.968h3.729c.601,0,1.088-.433,1.088-.968s-.487-.968-1.088-.968Zm-7.457,4.016h-3.729c-.601,0-1.088.433-1.088.968s.487.968,1.088.968h3.729c.601,0,1.088-.433,1.088-.968s-.487-.968-1.088-.968Zm7.238,0h-3.729c-.601,0-1.088.433-1.088.968s.487.968,1.088.968h3.729c.601,0,1.088-.433,1.088-.968s-.487-.968-1.088-.968Zm-7.238,3.828h-3.729c-.601,0-1.088.433-1.088.968s.487.968,1.088.968h3.729c.601,0,1.088-.433,1.088-.968s-.487-.968-1.088-.968Zm7.238,0h-3.729c-.601,0-1.088.433-1.088.968s.487.968,1.088.968h3.729c.601,0,1.088-.433,1.088-.968s-.487-.968-1.088-.968Zm-7.348,3.828h-3.729c-.601,0-1.088.433-1.088.968s.487.968,1.088.968h3.729c.601,0,1.088-.433,1.088-.968s-.487-.968-1.088-.968Zm7.238,0h-3.729c-.601,0-1.088.433-1.088.968s.487.968,1.088.968h3.729c.601,0,1.088-.433,1.088-.968s-.487-.968-1.088-.968Zm-5.908-43.508c-.601,0-1.088.433-1.088.968v4.598c0,.535.487.968,1.088.968s1.088-.433,1.088-.968v-4.598c0-.535-.487-.968-1.088-.968Zm5.703-.1c-.601,0-1.088.433-1.088.968v4.794c0,.535.487.968,1.088.968s1.088-.433,1.088-.968v-4.794c0-.535-.487-.968-1.088-.968Zm-.082,7.824c-.601,0-1.088.433-1.088.968v4.427c0,.535.487.968,1.088.968s1.088-.433,1.088-.968v-4.427c0-.535-.487-.968-1.088-.968Zm-5.812,6.289c.601,0,1.088-.433,1.088-.968v-4.427c0-.535-.487-.968-1.088-.968s-1.088.433-1.088.968v4.427c0,.535.487.968,1.088.968Zm.11,1.089c-.601,0-1.088.433-1.088.968v4.427c0,.535.487.968,1.088.968s1.088-.433,1.088-.968v-4.427c0-.535-.487-.968-1.088-.968Zm5.703-.148c-.601,0-1.088.433-1.088.968v4.427c0,.535.487.968,1.088.968s1.088-.433,1.088-.968v-4.427c0-.535-.487-.968-1.088-.968Zm36.937,16.19h-9.022c-.601,0-1.088.433-1.088.968s.487.968,1.088.968h9.022c.601,0,1.088-.433,1.088-.968s-.487-.968-1.088-.968Zm-10.11-1.861c0,.535.487.968,1.088.968h9.022c.601,0,1.088-.433,1.088-.968s-.487-.968-1.088-.968h-9.022c-.601,0-1.088.433-1.088.968Zm10.11,5.08h-9.022c-.601,0-1.088.433-1.088.968s.487.968,1.088.968h9.022c.601,0,1.088-.433,1.088-.968s-.487-.968-1.088-.968Zm-23.852-4.481v3.999c0,.382-.348.691-.777.691h-2.851c-.429,0-.777-.31-.777-.691v-3.999c0-.382.348-.691.777-.691h2.851c.429,0,.777.31.777.691Zm-1.555.691h-1.297v2.616h1.297v-2.616Zm7.367-.545v3.999c0,.382-.348.691-.777.691h-2.851c-.429,0-.777-.31-.777-.691v-3.999c0-.382.348-.691.777-.691h2.851c.429,0,.777.31.777.691Zm-1.555.691h-1.297v2.617h1.297v-2.617Zm-4.101-7.278v3.999c0,.382-.348.691-.777.691h-2.851c-.429,0-.777-.31-.777-.691v-3.999c0-.382.348-.691.777-.691h2.851c.429,0,.777.31.777.691Zm-1.555.691h-1.297v2.616h1.297v-2.616Zm7.367-.545v3.999c0,.382-.348.691-.777.691h-2.851c-.429,0-.777-.31-.777-.691v-3.999c0-.382.348-.691.777-.691h2.851c.429,0,.777.31.777.691Zm-1.555.691h-1.297v2.617h1.297v-2.617Zm-4.132-7.465v3.999c0,.382-.348.691-.777.691h-2.851c-.429,0-.777-.31-.777-.691v-3.999c0-.382.348-.691.777-.691h2.851c.429,0,.777.31.777.691Zm-1.555.691h-1.297v2.616h1.297v-2.616Zm7.351,3.523c.005.033.016.064.016.099,0,.382-.348.691-.777.691h-.118c-.189,0-.357-.068-.491-.168h-2.242c-.429,0-.777-.31-.777-.691v-3.999c0-.382.348-.691.777-.691h2.851c.429,0,.777.31.777.691v3.999c0,.024-.013.045-.016.069Zm-2.836-.76h1.179v-1.005c0-.128.05-.241.118-.344v-1.268h-1.297v2.617Zm-15.493,7.551h-3.729c-.601,0-1.088.433-1.088.968s.487.968,1.088.968h3.729c.601,0,1.088-.433,1.088-.968s-.487-.968-1.088-.968Zm51.478,19.68v3.097c0,.535-.487.968-1.088.968H16.029c-.601,0-1.088-.433-1.088-.968v-3.097c0-.535.487-.968,1.088-.968h1.178v-14.968c0-.049.023-.092.031-.139.012-.07.018-.14.047-.207.029-.068.077-.123.122-.182.03-.04.044-.085.081-.121,1.169-1.15,2.394-2.168,3.667-3.069v-30.336c0-.535.487-.968,1.088-.968h2.943v-4.636c0-.535.487-.968,1.088-.968h2.645v-2.938c0-.535.487-.968,1.088-.968h1.487v-4.19c0-.535.487-.968,1.088-.968s1.088.433,1.088.968v4.19h1.487c.601,0,1.088.433,1.088.968v2.938h2.637c.601,0,1.088.433,1.088.968v4.636h2.943c.601,0,1.088.433,1.088.968,0,.129-.031.252-.083.365.052.113.083.235.083.365v10.082c.502.098,1.005.195,1.497.317v-23.467c0-.535.487-.968,1.088-.968h18.863c.601,0,1.088.433,1.088.968v38.244h8.343c.601,0,1.088.433,1.088.968v22.149h3.699v-1.19h-2.417c-.269,0-.52-.124-.661-.328-.142-.204-.154-.458-.034-.673l1.034-1.838h-.396c-.286,0-.549-.14-.685-.364-.135-.224-.122-.496.036-.709l.84-1.131c-.104-.056-.198-.13-.264-.226-.141-.206-.152-.462-.028-.676l2.718-4.715c.133-.231.4-.376.692-.376s.559.145.692.376l2.718,4.715c.124.214.113.47-.028.676-.066.096-.159.17-.264.226l.84,1.131c.158.212.171.484.036.709-.135.224-.398.364-.685.364h-.511l1.034,1.838c.121.214.108.469-.034.673-.142.204-.392.328-.661.328h-2.417v1.19h2.746c.601,0,1.088.433,1.088.968Zm-6.548-3.541h3.873l-1.191-2.118c-.192-.341-.037-.757.347-.928.224-.1.47-.084.68.006l-.399-.538c-.368-.055-.653-.326-.653-.669,0-.382.348-.691.777-.691h.006l-1.446-2.508-1.446,2.508h.006c.429,0,.777.31.777.691,0,.343-.285.614-.653.669l-.361.487c.172-.037.357-.031.528.045.384.171.539.586.347.928l-1.191,2.117Zm-4.716-18.609h-16.686v21.182h3.559v-5.184c0-1.795,1.74-3.256,3.878-3.256h2.206c2.139,0,3.878,1.461,3.878,3.256v5.184h3.165v-21.182Zm-5.341,21.182v-5.184c0-.716-.779-1.32-1.702-1.32h-2.206c-.923,0-1.702.604-1.702,1.32v5.184h5.61Zm-13.521,0v-31.199c-4.819-3.668-10.427-5.564-16.686-5.663v36.863h4.281v-7.03c0-.535.487-.968,1.088-.968h5.947c.601,0,1.088.433,1.088.968v7.03h4.281Zm-6.458-6.062h-3.771v6.062h3.771v-6.062Zm8.634-20.034h3.124v-1.213h-3.124v1.213Zm2.856-5.6v-1.214h-3.952c.241.179.491.338.728.524.009.007.012.017.02.024.058.049.098.109.143.168.035.046.079.087.104.137.025.049.031.105.046.158.019.067.046.132.049.202h2.862Zm-12.288-5.582c2.213.732,4.314,1.74,6.311,2.986h6.754c.429,0,.777.31.777.691v2.596c0,.382-.348.691-.777.691h-3.634v1.622h3.902c.429,0,.777.31.777.691v2.596c0,.382-.348.691-.777.691h-3.902v1.596h7.255V19.419h-16.686v23.115Zm-16.582-18.315h2.975v-1.97h-2.975v1.97Zm-3.733,5.603h10.434v-3.668h-10.434v3.668Zm-4.031,29.912c3.844-2.203,8.104-3.358,12.738-3.446v-14.33c0-.064.028-.12.041-.181.014-.063.016-.129.042-.187.027-.059.076-.105.115-.158.038-.051.066-.108.115-.151.049-.045.113-.072.171-.107.057-.035.107-.078.172-.103.065-.025.141-.028.212-.042.067-.013.129-.038.2-.039.006,0,.012,0,.017,0,.001,0,.002,0,.003,0,.001,0,.003,0,.004,0,1.596-.026,3.147.074,4.665.26v-9.493h-18.496v27.976Zm-3.948,20.078h16.686v-21.589c-6.439.124-11.912,2.425-16.686,7.006v14.584Zm63.499,1.936H17.117v1.161h65.766v-1.161ZM50.259,24.923v-2.596c0-.382.348-.691.777-.691h9.98c.429,0,.777.31.777.691v2.596c0,.382-.348.691-.777.691h-9.98c-.429,0-.777-.31-.777-.691Zm1.555-.691h8.425v-1.214h-8.425v1.214Zm-1.609,6.662v-2.596c0-.382.348-.691.777-.691h9.98c.429,0,.777.31.777.691v2.596c0,.382-.348.691-.777.691h-9.98c-.429,0-.777-.31-.777-.691Zm1.555-.691h8.425v-1.213h-8.425v1.213Zm-1.664,6.663v-2.596c0-.382.348-.691.777-.691h9.98c.429,0,.777.31.777.691v2.596c0,.382-.348.691-.777.691h-9.98c-.429,0-.777-.31-.777-.691Zm1.555-.691h8.425v-1.213h-8.425v1.213Zm-.832,7.354c-.429,0-.777-.31-.777-.691v-2.596c0-.382.348-.691.777-.691h9.98c.429,0,.777.31.777.691v2.596c0,.382-.348.691-.777.691h-9.98Zm.777-1.383h8.425v-1.213h-8.425v1.213Zm-13.819-2.328c.601,0,1.088-.433,1.088-.968v-4.794c0-.535-.487-.968-1.088-.968s-1.088.433-1.088.968v4.794c0,.535.487.968,1.088.968Z"/><text x="0" y="115" fill="#000000" font-size="5px" font-weight="bold" font-family="'Helvetica Neue', Helvetica, Arial-Unicode, Arial, Sans-serif">Created by Nanik haq</text><text x="0" y="120" fill="#000000" font-size="5px" font-weight="bold" font-family="'Helvetica Neue', Helvetica, Arial-Unicode, Arial, Sans-serif">from the Noun Project</text></svg>