<svg xmlns="http://www.w3.org/2000/svg" data-name="Layer 1" viewBox="0 0 100 125" x="0px" y="0px"><path d="m74.45,31.892h-2.091c-.424,0-.767.326-.767.728v11.587c0,.402.344.728.767.728h2.091c.424,0,.767-.326.767-.728v-11.587c0-.402-.344-.728-.767-.728Zm-.767,11.587h-.556v-10.131h.556v10.131Zm-4.459-11.587h-2.091c-.424,0-.768.326-.768.728v11.587c0,.402.344.728.768.728h2.091c.424,0,.767-.326.767-.728v-11.587c0-.402-.344-.728-.767-.728Zm-.767,11.587h-.556v-10.131h.556v10.131Zm-43.283,17.135v-8.472c0-.563.481-1.019,1.074-1.019s1.074.456,1.074,1.019v8.472c0,.563-.481,1.019-1.074,1.019s-1.074-.456-1.074-1.019Zm2.196,5.867v8.472c0,.563-.481,1.019-1.074,1.019s-1.074-.456-1.074-1.019v-8.472c0-.563.481-1.019,1.074-1.019s1.074.456,1.074,1.019Zm1.131-20.856v-8.471c0-.563.481-1.019,1.074-1.019s1.074.456,1.074,1.019v8.471c0,.563-.481,1.019-1.074,1.019s-1.074-.456-1.074-1.019Zm3.374.163v-8.471c0-.563.481-1.019,1.074-1.019s1.074.456,1.074,1.019v8.471c0,.563-.481,1.019-1.074,1.019s-1.074-.456-1.074-1.019Zm-6.842-.163v-8.471c0-.563.481-1.019,1.074-1.019s1.074.456,1.074,1.019v8.471c0,.563-.481,1.019-1.074,1.019s-1.074-.456-1.074-1.019Zm21.288,13.675h2.946c.593,0,1.074-.456,1.074-1.019v-2.794c0-.563-.481-1.019-1.074-1.019h-2.946c-.593,0-1.074.456-1.074,1.019v2.794c0,.563.481,1.019,1.074,1.019Zm1.074-2.794h.797v.756h-.797v-.756Zm4.818,2.794h2.946c.593,0,1.074-.456,1.074-1.019v-2.794c0-.563-.481-1.019-1.074-1.019h-2.946c-.593,0-1.074.456-1.074,1.019v2.794c0,.563.481,1.019,1.074,1.019Zm1.074-2.794h.797v.756h-.797v-.756Zm-3.874-7.968h-2.946c-.593,0-1.074.456-1.074,1.019v2.794c0,.563.481,1.019,1.074,1.019h2.946c.593,0,1.074-.456,1.074-1.019v-2.794c0-.563-.481-1.019-1.074-1.019Zm-1.074,2.794h-.797v-.756h.797v.756Zm6.967-2.794h-2.946c-.593,0-1.074.456-1.074,1.019v2.794c0,.563.481,1.019,1.074,1.019h2.946c.593,0,1.074-.456,1.074-1.019v-2.794c0-.563-.481-1.019-1.074-1.019Zm-1.074,2.794h-.797v-.756h.797v.756Zm-4.912,9.237h-2.946c-.593,0-1.074.456-1.074,1.019v2.794c0,.563.481,1.019,1.074,1.019h2.946c.593,0,1.074-.456,1.074-1.019v-2.794c0-.563-.481-1.019-1.074-1.019Zm-1.074,2.794h-.797v-.756h.797v.756Zm6.967-2.794h-2.946c-.593,0-1.074.456-1.074,1.019v2.794c0,.563.481,1.019,1.074,1.019h2.946c.593,0,1.074-.456,1.074-1.019v-2.794c0-.563-.481-1.019-1.074-1.019Zm-1.074,2.794h-.797v-.756h.797v.756Zm-7.721-15.689h2.946c.593,0,1.074-.456,1.074-1.019v-2.794c0-.563-.481-1.019-1.074-1.019h-2.946c-.593,0-1.074.456-1.074,1.019v2.794c0,.563.481,1.019,1.074,1.019Zm1.074-2.794h.797v.756h-.797v-.756Zm4.818,2.794h2.946c.593,0,1.074-.456,1.074-1.019v-2.794c0-.563-.481-1.019-1.074-1.019h-2.946c-.593,0-1.074.456-1.074,1.019v2.794c0,.563.481,1.019,1.074,1.019Zm1.074-2.794h.797v.756h-.797v-.756Zm-6.82-3.136h2.946c.593,0,1.074-.456,1.074-1.019v-2.794c0-.563-.481-1.019-1.074-1.019h-2.946c-.593,0-1.074.456-1.074,1.019v2.794c0,.563.481,1.019,1.074,1.019Zm1.074-2.794h.797v.756h-.797v-.756Zm4.818,2.794h2.946c.593,0,1.074-.456,1.074-1.019v-2.794c0-.563-.481-1.019-1.074-1.019h-2.946c-.593,0-1.074.456-1.074,1.019v2.794c0,.563.481,1.019,1.074,1.019Zm1.074-2.794h.797v.756h-.797v-.756Zm-21.982,25.368c-.001-.563.479-1.02,1.073-1.021l4.941-.008h.002c.593,0,1.073.455,1.074,1.017.001.563-.479,1.02-1.073,1.021l-4.941.008h-.002c-.592,0-1.073-.455-1.074-1.017Zm.006,3.289c-.001-.563.479-1.02,1.073-1.021l4.941-.008h.002c.592,0,1.073.455,1.074,1.017.001.563-.479,1.02-1.073,1.021l-4.941.008h-.002c-.593,0-1.073-.455-1.074-1.017Zm32.536-3.367h2.946c.593,0,1.074-.456,1.074-1.019v-2.257c0-.563-.481-1.019-1.074-1.019h-2.946c-.593,0-1.074.456-1.074,1.019v2.257c0,.563.481,1.019,1.074,1.019Zm1.074-2.257h.797v.219h-.797v-.219Zm4.818,2.257h2.946c.593,0,1.074-.456,1.074-1.019v-2.257c0-.563-.481-1.019-1.074-1.019h-2.946c-.593,0-1.074.456-1.074,1.019v2.257c0,.563.481,1.019,1.074,1.019Zm1.074-2.257h.797v.219h-.797v-.219Zm-3.874-6.828h-2.946c-.593,0-1.074.456-1.074,1.019v2.257c0,.563.481,1.019,1.074,1.019h2.946c.593,0,1.074-.456,1.074-1.019v-2.257c0-.563-.481-1.019-1.074-1.019Zm-1.074,2.257h-.797v-.219h.797v.219Zm6.967-2.257h-2.946c-.593,0-1.074.456-1.074,1.019v2.257c0,.563.481,1.019,1.074,1.019h2.946c.593,0,1.074-.456,1.074-1.019v-2.257c0-.563-.481-1.019-1.074-1.019Zm-1.074,2.257h-.797v-.219h.797v.219Zm-4.912,7.462h-2.946c-.593,0-1.074.456-1.074,1.019v2.257c0,.563.481,1.019,1.074,1.019h2.946c.593,0,1.074-.456,1.074-1.019v-2.257c0-.563-.481-1.019-1.074-1.019Zm-1.074,2.257h-.797v-.219h.797v.219Zm6.967-2.257h-2.946c-.593,0-1.074.456-1.074,1.019v2.257c0,.563.481,1.019,1.074,1.019h2.946c.593,0,1.074-.456,1.074-1.019v-2.257c0-.563-.481-1.019-1.074-1.019Zm-1.074,2.257h-.797v-.219h.797v.219Zm-40.215-9.322c-.001-.563.479-1.02,1.073-1.021l4.941-.008h.002c.593,0,1.073.455,1.074,1.017.001.563-.479,1.02-1.073,1.021l-4.941.008h-.002c-.592,0-1.073-.455-1.074-1.017Zm7.097,3.277c.001.563-.479,1.02-1.072,1.021l-4.941.008h-.002c-.593,0-1.073-.455-1.074-1.017-.001-.563.479-1.02,1.073-1.021l4.941-.008h.002c.592,0,1.073.455,1.074,1.017Zm49.614,11.455c.181-.438.28-.907.28-1.382,0-2.085-1.789-3.782-3.988-3.782s-3.988,1.696-3.988,3.782c0,.475.098.943.28,1.381-.181.438-.28.907-.28,1.382s.098.943.28,1.381c-.181.438-.28.907-.28,1.382,0,1.73,1.238,3.177,2.914,3.625v2.662h-3.484V16.006c0-.563-.481-1.019-1.074-1.019-.39,0-.716.207-.904.502l-15.103,9.832c-.478.103-.843.49-.843.974v23.899h-1.13v-8.196s0,0,0,0v-8.19c0-.563-.481-1.019-1.074-1.019h-18.817c-.593,0-1.074.456-1.074,1.019v16.386h-1.815v-16.482c0-.047-.022-.088-.028-.133-.01-.071-.019-.14-.044-.207-.024-.062-.059-.115-.094-.172-.035-.056-.067-.11-.114-.16-.05-.054-.11-.093-.171-.136-.039-.027-.066-.065-.11-.087l-15.776-8.148c-.016-.008-.033-.007-.049-.014-.064-.03-.134-.043-.204-.06-.071-.017-.138-.037-.21-.04-.018,0-.033-.01-.051-.01-.05,0-.092.021-.14.027-.075.01-.148.018-.219.042-.065.022-.121.055-.18.089-.059.033-.117.064-.169.108-.056.048-.098.104-.143.162-.029.037-.068.063-.092.104-.009.015-.008.032-.015.047-.031.061-.045.127-.063.194-.018.067-.039.131-.042.198,0,.017-.01.031-.01.048v57.412h-3.448v-2.662c1.675-.448,2.914-1.895,2.914-3.625,0-.475-.098-.943-.28-1.382.181-.438.28-.907.28-1.381s-.098-.943-.28-1.382c.181-.438.28-.907.28-1.381,0-2.085-1.789-3.782-3.988-3.782s-3.988,1.696-3.988,3.782c0,.475.098.943.28,1.382-.181.438-.28.907-.28,1.381s.098.943.28,1.382c-.181.438-.28.907-.28,1.381,0,1.73,1.238,3.177,2.914,3.625v2.662h-2.382c-.593,0-1.074.456-1.074,1.019s.481,1.019,1.074,1.019h74.273c.593,0,1.074-.456,1.074-1.019s-.481-1.019-1.074-1.019h-.901v-2.662c1.675-.448,2.914-1.895,2.914-3.625,0-.475-.098-.943-.28-1.382.181-.438.28-.907.28-1.381s-.098-.943-.28-1.381Zm-74.389,4.144c0-.307.085-.608.245-.871.023-.038.025-.08.043-.12.029-.066.056-.129.07-.198.013-.065.014-.127.014-.192,0-.065,0-.127-.014-.192-.014-.07-.041-.133-.07-.198-.018-.039-.019-.082-.043-.12-.161-.263-.245-.565-.245-.872s.085-.608.245-.871c.023-.038.025-.08.043-.12.029-.066.056-.129.07-.198.013-.065.014-.127.014-.192,0-.065,0-.127-.014-.192-.014-.07-.041-.133-.07-.198-.018-.039-.019-.082-.043-.12-.161-.263-.245-.565-.245-.872,0-.962.825-1.744,1.839-1.744s1.839.782,1.839,1.744c0,.307-.085.608-.245.871-.023.038-.025.081-.043.12-.029.065-.056.128-.07.198-.013.065-.014.127-.014.192,0,.065,0,.127.014.192.014.07.041.133.07.198.018.04.019.082.043.12.161.263.245.565.245.871s-.085.608-.245.871c-.023.038-.025.081-.043.12-.029.065-.056.128-.07.198-.013.065-.014.127-.014.192,0,.065,0,.127.014.192.014.07.041.133.07.198.018.04.019.082.043.12.161.263.245.565.245.871,0,.962-.825,1.744-1.839,1.744s-1.839-.782-1.839-1.744Zm37.886,6.287h-2.603v-11.219h2.603v11.219Zm7.032-48.148v48.148h-4.884v-12.238c0-.563-.481-1.019-1.074-1.019h-4.752c-.593,0-1.074.456-1.074,1.019v12.238h-4.884v-31.762s0,0,0,0v-16.386h16.668Zm-36.407-7.548l13.627,7.038v15.877h-6.813c-.593,0-1.074.456-1.074,1.019v31.762h-5.739V27.279Zm7.888,24.953h9.703v30.743h-1.815v-7.47c0-.281-.12-.536-.315-.721s-.463-.298-.76-.298h-4.126c-.593,0-1.074.456-1.074,1.019v7.47h-1.613v-30.743Zm3.762,30.743v-6.451h1.977v6.451h-1.977Zm32.891,0v-6.451h2.603v6.451h-2.603Zm4.752,0v-7.47c0-.563-.481-1.019-1.074-1.019h-4.752c-.593,0-1.074.456-1.074,1.019v7.47h-3.835v-30.743h14.543v30.743h-3.807Zm5.956,0v-31.762c0-.563-.481-1.019-1.074-1.019h-12.339v-23.252l13.627-8.871v64.904h-.214Zm6.921-4.543c-1.014,0-1.839-.782-1.839-1.744,0-.307.085-.608.245-.871.023-.038.025-.081.043-.12.029-.066.056-.129.07-.198.013-.065.014-.127.014-.192,0-.065,0-.127-.014-.192-.014-.07-.041-.133-.07-.198-.018-.04-.019-.082-.043-.12-.161-.263-.245-.564-.245-.871s.085-.608.245-.871c.023-.038.025-.081.043-.12.029-.066.056-.129.07-.198.013-.065.014-.127.014-.192,0-.065,0-.127-.014-.192-.014-.07-.041-.133-.07-.198-.018-.04-.019-.082-.043-.12-.161-.263-.245-.564-.245-.871,0-.962.825-1.744,1.839-1.744s1.839.782,1.839,1.744c0,.307-.085.608-.245.871-.023.038-.025.081-.043.12-.029.065-.056.128-.07.198-.013.065-.014.127-.014.192,0,.065,0,.127.014.192.014.07.041.132.07.198.018.04.019.082.043.12.161.263.245.564.245.871s-.085.608-.245.871c-.023.038-.025.081-.043.12-.029.065-.056.128-.07.198-.013.065-.014.127-.014.192,0,.065,0,.127.014.192.014.07.041.132.07.198.018.04.019.082.043.12.161.263.245.564.245.871,0,.962-.825,1.744-1.839,1.744Z"/><text x="0" y="115" fill="#000000" font-size="5px" font-weight="bold" font-family="'Helvetica Neue', Helvetica, Arial-Unicode, Arial, Sans-serif">Created by Nanik haq</text><text x="0" y="120" fill="#000000" font-size="5px" font-weight="bold" font-family="'Helvetica Neue', Helvetica, Arial-Unicode, Arial, Sans-serif">from the Noun Project</text></svg>